# xmcd CD database file
#
# Track frame offsets:
#	150
#	15043
#	34972
#	51781
#	78937
#	93064
#	106357
#	124761
#	135832
#	152931
#	173489
#	191871
#	207602
#	222629
#
# Disc length: 3121 seconds
#
# Revision: 1
# Processed by: cddbd v1.5.2PL0 Copyright (c) Steve Scherf et al.
# Submitted via: CDex 1.51
#
DISCID=b60c2f0e
DTITLE=Hank Shizzoe - Out And About
DYEAR=2005
DGENRE=Rock
TTITLE0=Out And About
TTITLE1=Your Luck Will Find You
TTITLE2=Happy Man
TTITLE3=Do It Now
TTITLE4=Jam
TTITLE5=Wrong Numbers
TTITLE6=Between Rhythm And Blues
TTITLE7=Mrs, Hippy
TTITLE8=Stumble Through The Desert
TTITLE9=Fuzzy
TTITLE10=These Are The Days
TTITLE11=Learning Th Live
TTITLE12=Long Lists
TTITLE13=That's Who I Am
EXTD=YEAR: 2005
EXTT0=
EXTT1=
EXTT2=
EXTT3=
EXTT4=
EXTT5=
EXTT6=
EXTT7=
EXTT8=
EXTT9=
EXTT10=
EXTT11=
EXTT12=
EXTT13=
PLAYORDER=
